<svg xmlns="http://www.w3.org/2000/svg" xml:space="preserve" viewBox="0 0 500 500"><style>.st2{fill:#76d3e8}</style><path id="border" d="M439.3 188.3c-19.7-32.9-39.1-46.2-51.3-51.5-.7-.3-1.4-.6-2-.8-.1 0-.1 0-.2-.1-.6-.2-1.2-.5-1.8-.6-.1 0-.1 0-.2-.1-.6-.2-1.2-.4-1.7-.5h-.1c-.5-.2-1-.3-1.5-.4h-.2c-.4-.1-.9-.2-1.3-.3h-.1c-.4-.1-.8-.2-1.1-.2-.3-.1-.6-.1-.9-.2h-.1c-.3 0-.5-.1-.7-.1-.6-.1-.9-.1-.9-.1-15.4-38.1-83.6-54.1-83.6-54.1l-42.9-1.4c-10.1.6-45.9 8.8-84.8 25.7-1.6.7-3.3 1.4-4.9 2.2-32.9 14.8-67.4 35.7-90.1 63.4-1.4 1.6-2.7 3.3-3.9 5-17 22.7-25.9 49.7-20.2 81.3 1.2 6.5 2.5 12.5 3.8 18.1 24 99.3 75.5 77.5 78 76.4h.1s54.6 44 98.9 31.9c20.1-5.5 29.5-10.1 33.9-13.6 2.7-2.1 3.5-3.7 3.6-4.9v-.4c-.1-.8-.4-1.2-.4-1.2 20.1 9.4 31.2 13.2 44.8 26.5 13.7 13.3 34.3 33.9 34.3 33.9l18.6-5.1-14.8-31.1s23.6 13 57.6-22.6c25.3-26.4 24.9-50.9 23-61.7 0-.3-.1-.5-.1-.8v-.2c-.2-.8-.3-1.5-.5-2.1 0-.1 0-.2-.1-.2 0-.2-.1-.3-.1-.5 0-.1 0-.1-.1-.2-.1-.2-.1-.5-.2-.7 0-.1 0-.1-.1-.2 0-.1-.1-.2-.1-.3-.1-.4-.2-.7-.2-.7 30.3-22.7 46.9-53.4 14.6-107.5z" style="fill:#fff;stroke:#fff;stroke-width:10;stroke-miterlimit:10"/><g xmlns:cc="http://creativecommons.org/ns#" xmlns:dc="http://purl.org/dc/elements/1.1/" xmlns:inkscape="http://www.inkscape.org/namespaces/inkscape" xmlns:rdf="http://www.w3.org/1999/02/22-rdf-syntax-ns#" xmlns:sodipodi="http://sodipodi.sourceforge.net/DTD/sodipodi-0.dtd" xmlns:svg="http://www.w3.org/2000/svg" id="object"><path d="M126.8 349.9s-59.6 28.4-82-94.5 177.7-175.9 204-177.5l42.9 1.4s68.2 16 83.6 54.1c0 0 31.5.9 63.9 55s15.7 84.8-14.4 107.5c0 0 12.5 32-21.6 67.5S345.6 386 345.6 386l14.8 31.1-18.6 5.1s-20.6-20.6-34.3-33.9-24.7-17.1-44.8-26.5c0 0 7.2 8-37.1 20.1-44.2 12-98.8-32-98.8-32" style="fill:#206494"/><path d="M380.9 137.7c6.4 5.6 10.2 9 6.2 19.4-2.2 5.6-15.6 8.7-26.6 9.7-1.2-2.4-3.6-4-6.4-4-3.9 0-7.1 3.2-7.1 7.1s3.2 7.1 7.1 7.1c3.1 0 5.8-2 6.7-4.8 10-.9 27.7-3.9 31.3-13.2 4.4-11.4.9-17.3-4.1-22.2-5.9-2.6-10-3.3-11.8-3.5 1.6 1.6 3.2 3 4.7 4.4M426.4 301.7c-.4-2.5-.9-4.3-1.2-5.2-5 .4-19.5.6-30.2-1.9s-19.2-9.6-23.6-13.9c.2-.7.4-1.5.4-2.3 0-3.9-3.2-7.1-7.1-7.1s-7.1 3.2-7.1 7.1 3.2 7.1 7.1 7.1c1.2 0 2.3-.3 3.2-.8 4.9 4.7 14.1 12.2 25.9 15 7.4 1.8 16.6 2.3 23.7 2.3 3.7 0 7-.2 8.9-.3M271.9 277.1c-3.2 0-5.9 2.2-6.8 5.1-8.5 2.1-19.6 2.7-32.2-8-6.5-5.5-12-18.2-14.1-23.5 2.2-1.2 3.8-3.5 3.8-6.2 0-3.9-3.2-7.1-7.1-7.1s-7.1 3.2-7.1 7.1c0 3.1 2.1 5.8 4.9 6.7 1.7 4.5 7.9 20.1 16.2 27.1 8.8 7.4 17 10 24.3 10.4 0 .1-.1.1-.1.2-3.5 7.3-6.9 14.1-22.6 14.6-11.5.3-23.3-7.7-23.4-7.8l-3.1 4.4c-5 5.3-12.2 4.3-26.3-2.8-5.5-2.8-9.4-7.6-11.7-11.5 1.1-1.2 1.8-2.9 1.8-4.6 0-3.9-3.2-7.1-7.1-7.1s-7.1 3.2-7.1 7.1 3.2 7.1 7.1 7.1c.2 0 .3 0 .5-.1 2.7 4.5 7.2 10.4 14.1 13.8 2.1 1.1 4.3 2.1 6.5 3.1-.8 8.4-8.1 21.5-23.2 33.5-9.1 7.3-32.4 11.1-32.6 11.1v.1c.3-.1.4-.2.4-.2s2.1 1.7 5.8 4.3c7.9-1.7 22.4-5.4 29.7-11.2 13.9-11 23.3-24.7 25-35.8 3.1 1 6.2 1.7 9.1 1.7 4.7 0 9-1.6 12.6-6 4.9 2.6 12.8 6 21 6h.8c19-.5 23.6-10 27.3-17.6.5-.9.9-1.8 1.3-2.7 2.1-.2 4.1-.6 5.9-1 1.2 2.2 3.5 3.7 6.2 3.7 3.9 0 7.1-3.2 7.1-7.1.2-3.6-3-6.8-6.9-6.8M241.9 355.8c-2.6-1.7-5.4-5.6-7.5-9.1 1-1.2 1.7-2.8 1.7-4.5 0-3.9-3.2-7.1-7.1-7.1s-7.1 3.2-7.1 7.1 3.2 7.1 7.1 7.1c.2 0 .4 0 .7-.1 2.3 3.9 5.6 8.7 9.3 11.1 6.8 4.5 14.3 7.3 20.7 7.9 3.1-2.4 3.6-4.2 3.6-5.3-5.2.3-13.3-1.7-21.4-7.1M251.3 134.6c-3.9 0-7.1 3.2-7.1 7.1 0 1.2.3 2.4.9 3.4-3.1 2-8 3.5-13.8 3.4-4.6-.1-20.1-1.7-24.6-19.4 4.6-3.2 7.7-7.5 8.4-11.6h.3c3.9 0 7.1-3.2 7.1-7.1s-3.2-7.1-7.1-7.1-7.1 3.2-7.1 7.1c0 1.9.8 3.7 2 4.9l-.5.1c.4 3.4-4 9-11.2 11.9-3.7 1.5-16.4 5.3-25.9-7.5-4.5-6-7.6-13.7-8.6-16.4-1.6.7-3.3 1.4-5 2.2 1.2 3.2 4.4 11 9.2 17.5 5.6 7.5 13.2 11.5 21.4 11.5 3.5 0 7.2-.7 10.8-2.2.4-.2.8-.4 1.2-.5 4 13.6 14.9 21.8 29.4 22h.6c7.2 0 13.6-2.1 17.7-5.4.6.1 1.2.2 1.8.2 3.9 0 7.1-3.2 7.1-7.1.1-3.8-3.1-7-7-7M102.8 192c-2.9 0-5.4 1.7-6.5 4.2-4.6.7-10.4-.1-17.3-7.3-5.2-5.4-9.9-19.1-10.1-19.8-1.4 1.6-2.7 3.3-3.9 5 1.9 4.9 5.7 13.9 10.1 18.5 7 7.3 13.3 9.2 18.5 9.2.9 0 1.7-.1 2.5-.2 1 2.7 3.6 4.6 6.6 4.6 3.9 0 7.1-3.2 7.1-7.1.1-3.9-3.1-7.1-7-7.1M111.3 259c-3.9 0-7.1 3.2-7.1 7.1 0 .4.1.8.1 1.2-5.4 1.7-12.4 2.8-18.4-2.7-3.6-3.3-5.1-9.1-5.8-12.7 1.6-1.3 2.6-3.3 2.6-5.5 0-3.9-3.2-7.1-7.1-7.1s-7.1 3.2-7.1 7.1c0 3.7 2.8 6.7 6.4 7 .8 4 2.6 10.1 6.4 14.2-2.7 5.3-7.2 13.1-16.9 13.1h-.2c-7.2-.1-15-7.5-15.1-7.6l-.3.4c.6 2.7 1.3 5.3 2 7.7 3.5 2.4 8.4 4.8 13.4 4.9h.3c12.2 0 18.1-9.2 21.2-15.1 3.6 2.2 7.3 3 10.8 3 4.1 0 7.9-1.1 10.9-2.1 1.1.8 2.5 1.2 4 1.2 3.9 0 7.1-3.2 7.1-7.1-.1-3.8-3.3-7-7.2-7" class="st2"/></g></svg>